<?xml version="1.0" encoding="UTF-8" standalone="no"?>
<!DOCTYPE svg PUBLIC "-//W3C//DTD SVG 1.1//EN" "http://www.w3.org/Graphics/SVG/1.1/DTD/svg11.dtd">
<svg width="100%" height="100%" viewBox="0 0 1611 1154" version="1.1" xmlns="http://www.w3.org/2000/svg" xmlns:xlink="http://www.w3.org/1999/xlink" xml:space="preserve" xmlns:serif="http://www.serif.com/" style="fill-rule:evenodd;clip-rule:evenodd;stroke-linejoin:round;stroke-miterlimit:2;">
    <g transform="matrix(1,0,0,1,-10771.254022,-6810.34542)">
        <g transform="matrix(4.166667,0,0,4.166667,0,0)">
            <g transform="matrix(1,0,0,1,2934.3391,1829.88)">
                <path d="M0,-114.283C-1.324,-112.846 -0.384,-111.52 0.361,-110.227C1.869,-107.609 4.09,-104.997 4.801,-102.385C5.995,-97.996 8.078,-93.619 9.062,-89.309C10.061,-84.935 13.745,-80.531 12.822,-76.296C11.894,-72.04 14.495,-67.64 14.686,-63.36C14.862,-59.395 15.552,-55.422 14.553,-51.576C13.355,-46.961 13.132,-42.061 12.603,-37.259C12.555,-36.83 13.356,-36.219 14.004,-35.38C16.632,-38.998 18.376,-42.686 19.988,-46.566C23.119,-54.101 22.705,-62.422 24.223,-70.296C24.932,-73.976 24.001,-78.176 21.679,-82.283C19.643,-85.886 18.565,-89.662 16.5,-93.258C12.275,-100.616 7.849,-107.966 0,-114.283M-60.601,-162.124C-75.337,-169.514 -90.301,-175.673 -106.41,-179.907C-127.185,-185.366 -147.472,-186.863 -167.368,-185.917C-200.76,-184.33 -229.74,-175.937 -255.583,-163.224C-263.182,-159.485 -270.232,-155.122 -275.694,-149.21C-269.661,-148.174 -269.008,-147.999 -267.95,-149.325C-265.148,-152.839 -259.938,-154.218 -255.934,-156.645C-252.874,-158.5 -249.281,-160.618 -245.293,-160.784C-238.861,-161.05 -234.298,-163.365 -229.289,-165.227C-227.056,-166.057 -224.977,-166.75 -222.264,-166.79C-220.614,-166.815 -218.486,-167.063 -217.728,-167.891C-215.665,-170.142 -212.05,-170.132 -208.913,-170.744C-204.083,-171.686 -198.914,-172.067 -194.155,-173.112C-175.974,-177.106 -156.396,-177.412 -136.45,-176.451C-112.721,-175.309 -89.142,-170.676 -65.963,-162.229C-64.311,-161.627 -62.457,-160.886 -60.601,-162.124M-130.353,60.569C-143.86,60.408 -156.021,58.948 -168.339,53.651C-173.816,51.296 -179.684,50.188 -185.579,49.828C-194.074,49.308 -202.476,47.541 -210.928,45.083C-228.664,39.926 -245.812,33.743 -261.041,24.004C-268.134,19.468 -275.689,15.093 -281.675,9.839C-290.244,2.317 -298.837,-5.236 -306.155,-13.544C-312.394,-20.629 -317.777,-27.902 -322.416,-35.331C-326.635,-42.089 -330.461,-49.1 -330.733,-56.274C-330.809,-58.284 -331.45,-60.343 -334.65,-61.513C-334.924,-61.36 -335.389,-61.26 -335.422,-61.058C-338.124,-43.994 -337.065,-26.517 -330.479,-8.505C-322.226,14.068 -307.064,34.07 -280.709,49.939C-259.794,62.532 -237.603,70.884 -212.885,72.351C-204.83,72.83 -197.25,72.071 -189.477,71.803C-177.725,71.398 -167.046,68.814 -156.017,67.015C-147.088,65.558 -138.881,62.768 -130.353,60.569M-31.007,-138.255C-38.867,-142.491 -46.488,-147.323 -54.798,-150.922C-71.239,-158.042 -88.577,-162.787 -106.101,-165.405C-118.177,-167.209 -130.31,-168.063 -142.281,-168.634C-151.075,-169.053 -159.911,-169.136 -168.261,-167.93C-184.768,-165.544 -201.807,-164.26 -217.139,-159.554C-223.525,-157.594 -230.34,-156.103 -236.554,-153.843C-251.583,-148.377 -265.101,-141.46 -278.107,-133.892C-289.635,-127.183 -298.852,-119.01 -307.739,-110.488C-315.797,-102.762 -320.764,-93.862 -321.347,-83.067C-322.057,-69.921 -321.377,-56.772 -314.831,-43.139C-310.804,-34.753 -305.123,-26.952 -298.708,-19.119C-289.343,-7.682 -277.366,2.065 -264.404,11.117C-247.293,23.066 -228.348,32.601 -206.914,38.167C-193.778,41.578 -180.538,43.153 -168.25,42.269C-156.486,41.423 -144.779,39.449 -135.449,34.287C-131.603,32.159 -126.981,30.742 -122.703,29.013C-120.117,27.968 -117.193,27.783 -113.936,28.202C-110.822,28.602 -109.657,29.52 -108.227,33.42C-112.547,39.479 -123.389,38.988 -129.448,43.214C-135.644,47.536 -145.134,47.105 -153.201,49.999C-147.078,51.621 -142.447,51.655 -137.832,50.775C-125.688,48.458 -113.983,45.63 -102.602,42.066C-85.169,36.606 -68.566,30.338 -53.262,22.55C-46.959,19.342 -40.471,16.172 -35.198,12.144C-28.807,7.263 -23.011,1.83 -18.071,-3.988C-13.117,-9.821 -8.719,-16.101 -5.579,-22.775C-2.456,-29.416 -0.463,-36.588 0.455,-43.961C1.372,-51.331 2.483,-58.676 1.179,-66.466C-0.165,-74.5 -1.04,-82.44 -3.408,-90.593C-8.281,-107.369 -16.054,-123.355 -31.007,-138.255M-342.318,-68.325C-342.564,-70.681 -342.876,-73.682 -343.241,-77.187C-339.402,-83.88 -335.299,-90.874 -331.376,-97.944C-329.655,-101.047 -328.142,-104.25 -326.804,-107.506C-321.238,-121.055 -311.501,-132.42 -300.64,-143.298C-290.944,-153.01 -278.591,-160.628 -266.799,-168.713C-263.823,-170.752 -260.482,-172.241 -255.657,-171.548C-252.916,-175.449 -248.343,-177.743 -243.007,-179.515C-233.671,-182.615 -224.177,-185.461 -214.408,-187.993C-201.064,-191.452 -187.083,-193.685 -172.527,-194.693C-160.562,-195.522 -148.314,-195.93 -135.668,-194.12C-116.721,-191.409 -98.129,-186.66 -80.272,-179.083C-71.44,-175.335 -62.624,-171.507 -54.51,-166.597C-44.183,-160.349 -34.396,-153.787 -26.489,-145.677C-23.919,-143.042 -20.719,-140.493 -17.273,-138.509C-6.559,-132.341 1.834,-124.515 9.754,-116.692C22.918,-103.688 33.261,-89.707 35.22,-74.336C35.898,-69.024 37.188,-63.692 37.294,-58.359C37.458,-50.234 34.906,-43.077 31.87,-35.975C28.57,-28.258 24.266,-21.008 18.892,-14.186C13.326,-7.119 6.89,-0.541 -0.378,5.34C-11.793,14.577 -23.92,23.398 -36.942,31.368C-50.229,39.499 -63.846,47.387 -78.964,53.93C-96.543,61.539 -114.982,67.93 -134.753,72.694C-154.917,77.553 -175.942,80.877 -198.229,81.375C-210.417,81.647 -222.907,80.31 -235.626,77.04C-253.248,72.509 -269.739,65.936 -284.883,56.937C-295.232,50.786 -304.779,43.813 -312.473,35.61C-325.509,21.711 -336.189,7.27 -342.245,-8.431C-343.818,-12.509 -344.92,-16.485 -345.503,-20.511C-346.034,-24.177 -345.726,-27.815 -348.315,-31.538C-348.941,-32.439 -349.34,-33.755 -348.95,-34.51C-346.816,-38.646 -350.286,-43.569 -348.901,-47.884C-347.54,-52.126 -347.144,-56.701 -346.724,-61.212C-346.462,-64.025 -343.008,-65.134 -342.318,-68.325" style="fill-rule:nonzero;"/>
            </g>
        </g>
    </g>
</svg>
