<?xml version="1.0" encoding="UTF-8" standalone="no"?>
<!DOCTYPE svg PUBLIC "-//W3C//DTD SVG 1.1//EN" "http://www.w3.org/Graphics/SVG/1.1/DTD/svg11.dtd">
<svg width="100%" height="100%" viewBox="0 0 1349 1029" version="1.1" xmlns="http://www.w3.org/2000/svg" xmlns:xlink="http://www.w3.org/1999/xlink" xml:space="preserve" xmlns:serif="http://www.serif.com/" style="fill-rule:evenodd;clip-rule:evenodd;stroke-linejoin:round;stroke-miterlimit:2;">
    <g transform="matrix(1,0,0,1,-10842.831481,-5449.970091)">
        <g transform="matrix(4.166667,0,0,4.166667,0,0)">
            <g transform="matrix(1,0,0,1,2825.2698,1360.1118)">
                <path d="M0,142.459C2.498,143.487 4.35,144.249 5.979,144.92C7.703,146.79 7.674,148.74 7.177,150.742C6.784,151.33 6.526,152.029 6.027,152.415C2.028,155.513 -2.223,158.161 -6.859,160.274C-15.721,164.313 -24.295,168.935 -33.435,172.425C-47.552,177.816 -61.637,183.111 -76.655,185.585C-83.589,186.728 -90.346,188.915 -97.257,190.24C-106.151,191.945 -115.081,193.457 -124.198,193.642C-129.214,193.743 -134.275,195.163 -139.209,194.738C-144.211,194.308 -149.188,193.585 -154.24,193.493C-161.744,193.357 -168.834,191.036 -175.692,188.371C-184.787,184.838 -193.45,180.244 -200.72,173.618C-205.951,168.85 -215.407,157.195 -218.325,148.239C-224.358,129.718 -224.464,111.34 -219.082,92.789C-217.218,86.365 -215.347,79.952 -213.223,73.592C-210.093,64.225 -205.094,55.885 -200.153,47.55C-196.755,41.818 -192.256,36.669 -187.82,31.639C-182.732,25.87 -178.21,19.486 -171.596,15.205C-167.122,7.775 -158.344,5.036 -153.185,-1.66C-152.804,-2.154 -152.106,-2.437 -151.511,-2.728C-135.826,-10.383 -121.478,-20.627 -105.198,-27.082C-90.559,-32.886 -75.865,-38.595 -60.668,-42.864C-54.873,-44.492 -49.137,-46.333 -43.37,-48.062C-41.777,-48.54 -40.159,-49.38 -38.568,-49.346C-28.459,-49.129 -18.543,-50.935 -8.554,-51.957C-3.625,-50.345 1.288,-52.704 6.25,-51.975C10.888,-51.294 15.503,-50.37 20.097,-49.697C28.506,-48.466 36.382,-46.006 44.182,-42.855C60.489,-36.268 73.642,-25.806 83.963,-11.586C95.199,3.894 100.206,21.259 100.709,40.214C101.184,58.051 97.377,75.045 89.59,90.847C84.437,101.302 78.77,111.556 71.187,120.813C63.267,130.481 54.951,139.572 45.735,147.96C40.767,152.482 36.222,157.477 31.583,162.35C24.552,169.738 16.045,175.124 7.507,180.511C0.651,184.836 -6.767,187.898 -14.289,190.776C-16.44,190.809 -18.07,189.656 -19.663,188.416C-19.405,187.859 -19.299,187.067 -18.863,186.784C-14.083,183.676 -9.238,180.658 -4.422,177.621C5.768,171.196 16.101,164.773 24.129,155.539C28.752,150.222 32.961,144.548 37.473,139.131C39.614,136.562 41.707,133.772 44.38,131.865C51.036,127.116 56.164,121.047 61.38,114.851C69.902,104.728 76.922,93.742 82.485,81.822C86.314,73.616 88.636,64.979 90.537,56.026C93.73,40.977 90.6,26.664 87.777,12.263C86.418,5.336 82.518,-0.876 78.59,-6.706C69.142,-20.729 56.164,-30.695 40.647,-37.163C35.126,-39.464 29.099,-40.551 23.304,-42.196C15.494,-44.412 7.529,-45.367 -0.585,-45.276C-6.642,-45.208 -12.702,-45.355 -18.758,-45.255C-31.589,-45.045 -44.072,-42.517 -56.374,-39.12C-65.094,-36.712 -73.855,-34.314 -82.324,-31.173C-92.071,-27.559 -101.674,-23.46 -111.059,-18.984C-126.845,-11.455 -142.299,-3.267 -156.135,7.599C-170.753,19.079 -183.513,32.165 -194.035,47.689C-204.403,62.986 -211.183,79.49 -215.385,97.304C-216.166,100.613 -216.652,103.886 -216.845,107.243C-217,109.916 -216.773,112.62 -217.865,115.197C-218.244,116.092 -218.524,117.231 -218.319,118.138C-216.181,127.571 -217.17,137.461 -212.863,146.671C-208.89,155.168 -203.316,162.037 -196.42,168.056C-192.371,171.589 -188.025,174.627 -183.001,176.813C-171.195,181.949 -159.179,185.391 -146.094,185.642C-131.257,185.927 -116.739,184.243 -102.193,181.712C-88.96,179.41 -75.99,176.07 -63.052,172.597C-57.886,171.21 -52.928,169.033 -47.901,167.148C-35.308,162.427 -24.018,154.967 -11.584,149.861C-7.628,148.236 -4.241,145.224 0,142.459" style="fill-rule:nonzero;"/>
            </g>
        </g>
    </g>
</svg>
