<?xml version="1.0" encoding="UTF-8" standalone="no"?>
<!DOCTYPE svg PUBLIC "-//W3C//DTD SVG 1.1//EN" "http://www.w3.org/Graphics/SVG/1.1/DTD/svg11.dtd">
<svg width="100%" height="100%" viewBox="0 0 2084 625" version="1.1" xmlns="http://www.w3.org/2000/svg" xmlns:xlink="http://www.w3.org/1999/xlink" xml:space="preserve" xmlns:serif="http://www.serif.com/" style="fill-rule:evenodd;clip-rule:evenodd;stroke-linejoin:round;stroke-miterlimit:2;">
    <g transform="matrix(1,0,0,1,-17316,-3044)">
        <g id="アートボード5" transform="matrix(0.833226,0,0,1,2887.857789,-0.333333)">
            <rect x="17316" y="3044.333" width="2500.322" height="625" style="fill:none;"/>
            <g transform="matrix(5.000644,0,0,4.166667,17451.797991,3229.116468)">
                <path d="M0,60.91C-2.425,59.186 -3.084,56.38 -4.192,53.841C-3.475,51.179 -0.928,50.496 0.977,50.13C7.398,48.897 12.766,45.12 18.95,43.329C28.313,40.618 36.9,35.713 46.498,33.509C50.822,32.516 54.918,30.525 59.112,28.972C63.046,27.516 67.038,26.351 71.145,25.4C75.181,24.466 79.174,23.194 83.089,21.585C92.42,17.75 102.347,15.882 112.223,13.944C120.702,12.279 129.248,10.866 137.612,8.74C143.318,7.29 149.145,6.818 154.863,5.582C162.544,3.922 170.376,3.726 178.218,3.555C182.378,3.465 186.6,2.908 190.652,1.959C198.964,0.014 207.38,0.635 215.752,0.513C222.444,0.415 229.202,0 235.817,1.64C240.855,0.041 244.994,2.827 248.739,3.98C251.129,5.689 250.725,8.021 252.066,9.78C252.665,9.923 253.565,10.458 254.225,10.246C260.962,8.083 268.199,9.9 274.93,7.564C276.453,7.035 278.269,7.346 279.95,7.277C283.846,7.116 287.677,7.021 291.58,6.113C295.602,5.178 299.948,5.66 304.149,5.464C309.171,5.229 314.18,5.363 319.192,4.269C322.692,3.505 326.453,3.768 330.092,3.838C338.749,4.006 347.393,3.171 356.05,3.572C356.61,3.598 357.211,3.713 357.728,3.562C365.438,1.311 373.326,2.411 381.139,2.363C400.494,2.244 419.85,2.277 439.205,2.269C440.599,2.269 441.993,2.425 443.178,2.496C445.966,3.865 448.091,5.62 449.562,7.935C450.4,10.622 449.617,12.445 446.78,13.722C434.651,11.347 422.035,12.475 409.46,12.434C392.349,12.379 375.237,12.502 358.126,12.602C354.5,12.623 350.883,12.479 347.276,13.508C345.18,14.106 342.821,13.828 340.579,13.861C333.286,13.968 325.991,13.97 318.7,14.148C314.515,14.249 310.325,14.152 306.185,15.298C304.077,15.881 301.727,15.579 299.488,15.702C295.023,15.949 290.494,15.589 286.161,17.102C285.9,17.193 285.611,17.217 285.332,17.239C276.697,17.929 268.07,18.746 259.424,19.235C256.036,19.426 252.784,20.108 249.478,20.671C241.774,21.986 233.98,22.719 226.241,23.78C220.458,24.574 214.664,25.633 208.808,25.995C207.689,26.064 206.488,25.925 205.466,26.283C198.57,28.704 191.217,28.875 184.198,30.701C180.425,31.682 176.626,32.683 172.639,32.608C171.274,32.582 169.83,32.899 168.542,33.382C164.579,34.866 160.399,35.307 156.321,36.238C140.818,39.778 125.178,42.988 110.532,49.439C106.262,51.319 101.733,52.943 98.277,56.415C97.065,57.633 96.895,57.464 92.814,57.64C90.514,56.097 90.361,53.469 89.322,51.386C92.541,45.452 98.008,43.203 103.436,40.991C117.177,35.39 131.448,31.363 145.889,28.222C153.251,26.622 160.443,24.144 167.85,23.123C176.697,21.905 185.251,19.163 194.237,18.68C198.928,18.428 203.562,17.092 208.221,16.241C209.047,16.09 209.86,15.844 210.691,15.758C217.353,15.074 224.033,14.537 230.676,13.706C234.504,13.227 238.274,12.285 241.894,11.585C242.328,10.297 241.758,9.533 240.976,9.511C237.056,9.402 233.09,9.104 229.219,9.553C225.104,10.032 220.908,9.083 216.867,10.418C216.361,10.585 215.737,10.359 215.194,10.461C211.529,11.148 208.048,8.598 204.406,9.765C200.842,10.907 197.17,10.405 193.563,10.798C184.69,11.766 175.748,11.996 166.924,13.56C161.426,14.534 155.83,14.941 150.294,15.715C147.255,16.139 144.242,16.769 141.227,17.353C132.738,18.998 124.229,20.548 115.774,22.351C100.725,25.562 85.939,29.716 71.426,34.868C65.117,37.108 58.587,38.729 52.284,40.982C37.266,46.35 22.223,51.678 7.953,58.912C4.285,60.771 4.252,60.706 0,60.91" style="fill:rgb(255,169,0);fill-rule:nonzero;"/>
            </g>
        </g>
    </g>
</svg>
