<?xml version="1.0" encoding="UTF-8" standalone="no"?>
<!DOCTYPE svg PUBLIC "-//W3C//DTD SVG 1.1//EN" "http://www.w3.org/Graphics/SVG/1.1/DTD/svg11.dtd">
<svg width="100%" height="100%" viewBox="0 0 1869 313" version="1.1" xmlns="http://www.w3.org/2000/svg" xmlns:xlink="http://www.w3.org/1999/xlink" xml:space="preserve" xmlns:serif="http://www.serif.com/" style="fill-rule:evenodd;clip-rule:evenodd;stroke-linejoin:round;stroke-miterlimit:2;">
    <g transform="matrix(1,0,0,1,-10595.673493,-4700.029701)">
        <g transform="matrix(4.166667,0,0,4.166667,0,0)">
            <g transform="matrix(1,0,0,1,2818.4282,1158.2655)">
                <path d="M0,14.404C-1.87,14.681 -3.413,15.243 -4.981,15.68C-14.367,18.3 -23.741,20.962 -33.252,23.105C-36.424,23.819 -39.603,24.474 -42.884,24.441C-48.429,24.384 -51.863,20.545 -51.302,14.998C-51.286,14.837 -51.21,14.655 -51.687,14.321C-51.886,14.204 -52.361,14.485 -52.84,14.604C-64.344,17.455 -75.846,20.314 -87.352,23.154C-89.233,23.618 -91.127,24.033 -93.027,24.412C-97.796,25.363 -101.84,21.855 -101.596,17.006C-101.527,15.635 -101.53,15.623 -102.991,15.971C-112.029,18.125 -120.978,20.612 -129.939,23.055C-133.567,24.044 -137.197,25.028 -140.879,25.805C-142.688,26.187 -144.504,26.273 -146.301,25.789C-150.527,24.652 -152.645,20.838 -151.411,16.643C-151.317,16.324 -151.224,16.006 -151.104,15.593C-151.889,15.412 -152.509,15.761 -153.135,15.934C-160.496,17.962 -167.813,20.152 -175.216,22.03C-179.802,23.194 -184.421,24.213 -189.11,24.876C-191.433,25.205 -193.773,25.222 -196.108,24.985C-197.911,24.803 -199.531,24.116 -200.972,23.038C-203.492,21.153 -204.407,18.068 -203.436,14.922C-202.754,12.715 -201.397,10.996 -199.621,9.574C-197.296,7.712 -194.717,6.247 -192.122,4.811C-187.18,2.076 -182.102,-0.388 -176.976,-2.754C-176.311,-3.061 -175.661,-3.399 -175.044,-3.823C-176.64,-3.742 -178.115,-3.199 -179.613,-2.778C-198.854,2.637 -217.584,9.425 -235.598,18.123C-241.816,21.126 -247.858,24.454 -253.458,28.526C-254.925,29.594 -256.378,30.685 -257.72,32.01C-256.591,33.29 -255.67,34.558 -255.309,36.18C-254.48,39.909 -257.057,43.919 -260.832,44.467C-263.566,44.863 -266.297,44.677 -268.925,43.695C-274.203,41.722 -276.556,37.024 -274.988,31.603C-274.323,29.303 -273.014,27.373 -271.458,25.608C-268.541,22.297 -265.181,19.472 -261.614,16.894C-255.027,12.134 -247.924,8.255 -240.604,4.769C-221.714,-4.226 -202.108,-11.287 -181.952,-16.848C-166.94,-20.991 -151.724,-24.234 -136.432,-27.136C-130.663,-28.231 -124.87,-29.196 -119.037,-29.876C-116.668,-30.152 -114.291,-30.459 -111.881,-30.085C-107.249,-29.366 -104.104,-24.517 -105.419,-20.006C-106.11,-17.635 -107.733,-16.13 -109.967,-15.23C-113.826,-13.676 -117.691,-12.136 -121.555,-10.595C-128.437,-7.851 -135.322,-5.114 -142.198,-2.357C-142.757,-2.133 -143.398,-2.015 -143.965,-1.269C-141.613,-1.852 -139.475,-2.398 -137.33,-2.91C-129.79,-4.711 -122.246,-6.493 -114.57,-7.639C-111.914,-8.036 -109.254,-8.309 -106.563,-8.205C-105.179,-8.152 -103.83,-7.921 -102.578,-7.338C-99.98,-6.128 -98.536,-4.088 -98.349,-1.2C-98.324,-0.809 -98.309,-0.417 -98.284,0.081C-97.615,0.218 -97.018,0.039 -96.427,-0.088C-89.182,-1.645 -81.925,-3.136 -74.594,-4.238C-70.985,-4.781 -67.379,-5.357 -63.705,-5.101C-62.022,-4.984 -60.437,-4.584 -59.052,-3.587C-57.912,-2.767 -57.049,-1.703 -56.61,-0.367C-56.265,0.684 -56.075,0.79 -54.847,0.486C-48.429,-1.104 -42.007,-2.679 -35.568,-4.178C-28.129,-5.909 -20.666,-7.538 -13.101,-8.639C-11.128,-8.926 -9.144,-9.159 -7.145,-9.196C-5.701,-9.222 -4.297,-8.982 -2.959,-8.457C-0.233,-7.386 1.39,-5.428 1.735,-2.473C1.907,-0.992 1.926,-0.967 3.367,-1.367C9.409,-3.044 15.478,-4.613 21.593,-5.999C26.264,-7.057 30.969,-7.94 35.698,-8.696C37,-8.903 38.316,-8.959 39.623,-8.83C46.9,-8.106 48.556,-1.019 45.311,2.84C45.174,3.003 44.971,3.167 45.134,3.585C46.309,3.382 47.527,3.197 48.734,2.961C62.557,0.261 76.454,-1.988 90.401,-3.924C98.305,-5.02 106.22,-6.049 114.145,-6.972C122.694,-7.967 131.253,-8.875 139.837,-9.551C146.494,-10.076 153.153,-10.351 159.829,-10.274C162.056,-10.248 164.277,-10.159 166.48,-9.825C170.713,-9.184 173.317,-6.069 173.012,-2.031C172.729,1.71 169.16,4.787 165.453,4.307C160.048,3.607 154.648,3.803 149.232,4.052C141.082,4.427 132.968,5.209 124.863,6.097C115.513,7.122 106.18,8.271 96.858,9.532C87.593,10.784 78.346,12.145 69.126,13.683C55.184,16.008 41.337,18.819 27.516,21.778C21.613,23.041 15.716,24.368 9.723,25.175C7.759,25.439 5.851,25.288 4.009,24.549C0.333,23.075 -1.393,19.646 -0.399,15.824C-0.3,15.441 -0.186,15.062 0,14.404" style="fill:rgb(255,169,0);fill-rule:nonzero;"/>
            </g>
        </g>
    </g>
</svg>
