<?xml version="1.0" encoding="UTF-8" standalone="no"?>
<!DOCTYPE svg PUBLIC "-//W3C//DTD SVG 1.1//EN" "http://www.w3.org/Graphics/SVG/1.1/DTD/svg11.dtd">
<svg width="100%" height="100%" viewBox="0 0 1783 91" version="1.1" xmlns="http://www.w3.org/2000/svg" xmlns:xlink="http://www.w3.org/1999/xlink" xml:space="preserve" xmlns:serif="http://www.serif.com/" style="fill-rule:evenodd;clip-rule:evenodd;stroke-linejoin:round;stroke-miterlimit:2;">
    <g transform="matrix(1,0,0,1,-17466.170833,-2478.443875)">
        <g transform="matrix(0.833226,0,0,1,2887.857789,-0.333333)">
            <g transform="matrix(5.000644,0,0,4.166667,17520.271299,2481.136854)">
                <path d="M0,20.64C-1.962,19.605 -3.601,18.257 -4.808,15.858C-4.706,15.158 -4.732,14.054 -4.346,13.121C-4.071,12.455 -3.241,12.018 -2.561,11.387C7.406,11.625 17.224,10.026 27.1,8.778C37.789,7.427 48.573,6.818 59.321,5.96C67.92,5.273 76.526,4.693 85.13,4.078C86.206,4.001 87.286,3.976 88.365,3.962C96.189,3.863 104.014,3.813 111.837,3.665C116.149,3.583 120.519,3.727 124.754,3.066C129.112,2.386 133.383,2.833 137.694,2.876C145.514,2.955 153.309,2.55 161.115,2.048C167.567,1.633 174.06,1.734 180.533,1.802C190.521,1.906 200.488,1.734 210.467,1.161C218.272,0.712 226.115,0.961 233.941,0.875C240.147,0.808 246.381,1.037 252.547,0.497C256.626,0.14 260.637,0.384 264.682,0.371C271.425,0.35 278.167,0.168 284.91,0.125C290.546,0.089 296.193,0.381 301.815,0.116C307.736,-0.163 313.65,-0.247 319.568,-0.385C323.07,-0.466 326.57,-0.588 330.083,-0.563C346.854,-0.445 363.612,-0.108 380.319,1.557C381.918,1.716 383.553,1.483 385.172,1.461C386.79,1.439 388.52,1.078 390.008,1.517C396.563,3.45 403.403,3.228 410.048,4.42C414.52,5.222 418.755,6.75 423.11,7.885C422.863,8.774 422.729,9.252 422.506,10.053C416.479,10.501 410.391,11.208 404.176,10.668C395.84,9.945 387.474,9.333 379.113,9.189C371.292,9.055 363.471,8.204 355.705,8.378C348.409,8.542 341.111,7.711 333.926,8.234C328.014,8.664 322.033,7.549 316.193,9.064C315.427,9.263 314.58,9.177 313.771,9.169C305.409,9.088 297.045,8.861 288.685,8.948C281.135,9.026 273.589,9.462 266.04,9.7C263.887,9.768 261.729,9.677 259.574,9.696C255.535,9.73 251.467,8.963 247.464,10.109C247.209,10.182 246.921,10.204 246.659,10.169C239.118,9.167 231.594,10.645 224.034,10.267C217.035,9.918 209.959,9.94 202.99,10.587C198.701,10.986 194.471,10.59 190.242,10.628C182.953,10.693 175.703,10.919 168.452,11.607C166.847,11.76 165.199,11.655 163.588,11.497C159.268,11.071 155.02,11.032 150.663,11.679C145.891,12.387 140.957,11.239 136.139,12.272C127.779,11.189 119.419,12.327 111.059,12.321C107.851,12.319 104.645,12.829 101.434,12.892C98.469,12.951 95.538,12.83 92.548,13.227C87.213,13.935 81.805,13.398 76.396,13.894C67.021,14.753 57.611,15.256 48.222,16.112C40.444,16.822 32.648,17.379 24.891,18.302C19.262,18.973 13.655,19.839 8.054,20.72C5.344,21.147 2.678,21.228 0,20.64" style="fill:rgb(255,169,0);fill-rule:nonzero;"/>
            </g>
        </g>
    </g>
</svg>
