<?xml version="1.0" encoding="UTF-8" standalone="no"?>
<!DOCTYPE svg PUBLIC "-//W3C//DTD SVG 1.1//EN" "http://www.w3.org/Graphics/SVG/1.1/DTD/svg11.dtd">
<svg width="100%" height="100%" viewBox="0 0 2023 166" version="1.1" xmlns="http://www.w3.org/2000/svg" xmlns:xlink="http://www.w3.org/1999/xlink" xml:space="preserve" xmlns:serif="http://www.serif.com/" style="fill-rule:evenodd;clip-rule:evenodd;stroke-linejoin:round;stroke-miterlimit:2;">
    <g transform="matrix(1,0,0,1,-17346.476621,-4106.641265)">
        <g transform="matrix(0.833226,0,0,1,2887.857789,-0.333333)">
            <g transform="matrix(5.000644,0,0,4.166667,19658.733184,4230.123521)">
                <path d="M0,-19.173C-15.701,-19.07 -31.35,-18.082 -46.966,-16.466C-56.408,-15.49 -65.821,-14.294 -75.193,-12.801C-76.947,-12.521 -78.276,-12.728 -79.108,-14.428C-79.208,-14.633 -79.458,-14.766 -79.55,-14.972C-80.98,-18.161 -81.662,-17.759 -85.284,-17.804C-96.766,-17.946 -108.155,-16.804 -119.505,-15.193C-127.894,-14.002 -136.22,-12.469 -144.465,-10.504C-145.224,-10.323 -146.008,-10.236 -146.784,-10.134C-147.618,-10.024 -148.355,-10.209 -148.813,-10.991C-149.541,-12.235 -150.757,-12.45 -152.037,-12.591C-158.925,-13.352 -165.827,-13.143 -172.724,-12.81C-185.734,-12.184 -198.706,-11.092 -211.61,-9.288C-221.4,-7.918 -231.136,-6.254 -240.73,-3.839C-244.482,-2.894 -244.586,-2.816 -246.645,-5.938C-247.651,-7.464 -248.819,-7.871 -250.526,-7.91C-261.208,-8.153 -271.859,-7.579 -282.498,-6.74C-298.304,-5.492 -313.993,-3.346 -329.56,-0.337C-334.334,0.586 -339.089,1.608 -343.678,3.269C-344.266,3.482 -344.878,3.636 -345.485,3.79C-346.651,4.087 -347.475,3.902 -348.224,2.71C-349.462,0.739 -351.009,-1.037 -352.415,-2.903C-353.837,-4.789 -355.494,-5.856 -358.08,-5.914C-374.213,-6.277 -390.216,-5.037 -406.13,-2.47C-417.831,-0.583 -429.428,1.785 -440.757,5.321C-444.495,6.488 -448.253,7.616 -451.677,9.622C-453.32,10.585 -453.597,10.399 -454.894,8.91C-456.933,6.569 -458.445,3.803 -460.801,1.714C-461.516,1.08 -461.079,0.415 -460.485,-0.074C-459.382,-0.984 -458.083,-1.547 -456.768,-2.07C-451.071,-4.333 -445.205,-6.073 -439.262,-7.538C-414.313,-13.687 -389.043,-17.063 -363.291,-16.195C-359.126,-16.055 -355.002,-15.57 -350.91,-14.797C-349.519,-14.534 -348.152,-14.183 -346.836,-13.661C-345.661,-13.194 -344.32,-12.702 -343.713,-11.652C-342.547,-9.636 -341.064,-9.795 -339.143,-10.184C-321.982,-13.663 -304.662,-16.005 -287.195,-17.273C-276.705,-18.035 -266.215,-18.654 -255.692,-18.221C-253.811,-18.144 -251.93,-18.057 -250.073,-17.698C-248.444,-17.383 -246.833,-17.07 -245.814,-15.536C-245.228,-14.654 -244.402,-15.128 -243.668,-15.268C-239.201,-16.124 -234.748,-17.052 -230.271,-17.852C-218.06,-20.036 -205.743,-21.379 -193.383,-22.344C-184.777,-23.016 -176.163,-23.531 -167.527,-23.463C-164.076,-23.436 -160.623,-23.385 -157.199,-22.844C-155.792,-22.621 -154.397,-22.343 -153.235,-21.48C-152.381,-20.846 -151.521,-20.87 -150.567,-21.099C-139.416,-23.784 -128.106,-25.551 -116.717,-26.812C-107.12,-27.875 -97.5,-28.586 -87.831,-28.073C-86.26,-27.989 -84.701,-27.822 -83.182,-27.397C-81.953,-27.054 -80.69,-26.583 -80.041,-25.471C-79.171,-23.977 -78.09,-23.818 -76.5,-24.051C-57.546,-26.818 -38.497,-28.61 -19.354,-29.328C-7.899,-29.758 3.547,-29.617 14.976,-28.578C16.818,-28.41 18.218,-27.888 19.304,-26.28C20.435,-24.606 21.847,-23.123 23.135,-21.556C23.334,-21.314 23.556,-21.085 23.717,-20.82C24.685,-19.23 24.182,-18.253 22.333,-18.226C21.158,-18.209 19.981,-18.301 18.807,-18.378C12.545,-18.791 6.282,-19.198 0,-19.173" style="fill:rgb(255,169,0);fill-rule:nonzero;"/>
            </g>
        </g>
    </g>
</svg>
