<?xml version="1.0" encoding="UTF-8" standalone="no"?>
<!DOCTYPE svg PUBLIC "-//W3C//DTD SVG 1.1//EN" "http://www.w3.org/Graphics/SVG/1.1/DTD/svg11.dtd">
<svg width="100%" height="100%" viewBox="0 0 2131 142" version="1.1" xmlns="http://www.w3.org/2000/svg" xmlns:xlink="http://www.w3.org/1999/xlink" xml:space="preserve" xmlns:serif="http://www.serif.com/" style="fill-rule:evenodd;clip-rule:evenodd;stroke-linejoin:round;stroke-miterlimit:2;">
    <g transform="matrix(1,0,0,1,-17501.570764,-786.820231)">
        <g transform="matrix(0.148484,0,0,0.075,14785.210272,545.199465)">
            <g transform="matrix(28.061456,0,0,55.555556,28584.62878,3947.272708)">
                <path d="M0,7.888C4.384,6.736 8.732,5.605 13.074,4.451C27.56,0.604 42.199,-2.524 56.946,-5.202C70.936,-7.742 85.014,-9.589 99.149,-11.015C107.179,-11.826 115.238,-12.321 123.309,-12.652C128.43,-12.862 133.547,-13.085 138.673,-13.06C139.685,-13.055 140.685,-13.036 141.643,-12.617C143.666,-11.732 144.713,-9.966 144.477,-7.766C144.268,-5.816 142.766,-4.197 140.716,-3.863C139.805,-3.714 138.858,-3.759 137.927,-3.749C125.191,-3.609 112.491,-2.869 99.81,-1.662C87.439,-0.484 75.128,1.128 62.885,3.23C47.123,5.937 31.485,9.23 16.019,13.331C9.569,15.041 3.162,16.929 -3.382,18.279C-4.453,18.5 -5.532,18.557 -6.615,18.652C-10.754,19.017 -13.01,14.945 -11.851,11.581C-11.422,10.335 -10.878,9.128 -10.373,7.909C-9.312,5.35 -9.399,5.177 -12.191,4.564C-14.781,3.994 -17.431,3.822 -20.057,3.763C-30.239,3.533 -40.375,4.264 -50.507,5.257C-67.544,6.928 -84.256,10.372 -100.917,14.138C-106.222,15.337 -111.581,16.301 -117.018,16.514C-122.88,16.744 -128.643,15.979 -134.171,13.903C-136.681,12.961 -138.917,11.546 -140.568,9.392C-142.223,7.234 -144.436,6.112 -147.019,5.543C-152.498,4.337 -158.062,3.852 -163.649,3.566C-166.593,3.415 -169.534,3.232 -172.489,3.234C-186.298,3.243 -199.879,5.07 -213.336,8.069C-227.356,11.194 -241.162,15.142 -255.056,18.752C-259.106,19.804 -263.152,20.973 -267.399,20.96C-268.097,20.958 -268.802,20.957 -269.491,20.86C-274.239,20.195 -276.814,17.325 -276.884,12.527C-276.911,10.667 -276.77,8.809 -276.482,6.957C-275.816,2.664 -276.363,2.061 -280.625,1.847C-285.604,1.598 -290.558,1.95 -295.505,2.42C-304.165,3.242 -312.772,4.488 -321.331,6.023C-331.57,7.86 -341.759,9.945 -351.728,12.973C-354.331,13.764 -356.883,14.689 -359.325,15.9C-359.81,16.14 -360.311,16.373 -360.83,16.516C-362.952,17.103 -365.02,16.298 -366.081,14.511C-367.138,12.73 -366.862,10.501 -365.373,8.917C-364.391,7.872 -363.123,7.265 -361.839,6.712C-357.119,4.677 -352.192,3.247 -347.226,1.994C-332.152,-1.808 -316.881,-4.571 -301.437,-6.335C-294.725,-7.101 -287.995,-7.691 -281.22,-7.488C-278.877,-7.418 -276.574,-7.187 -274.326,-6.507C-269.876,-5.16 -267.177,-1.7 -267.018,2.93C-266.949,4.95 -267.051,6.956 -267.378,8.966C-267.824,11.71 -267.662,11.808 -264.991,11.377C-259.307,10.46 -253.8,8.809 -248.265,7.29C-233.517,3.243 -218.731,-0.638 -203.674,-3.388C-197.864,-4.449 -191.999,-5.086 -186.114,-5.555C-179.215,-6.105 -172.309,-6.261 -165.399,-5.897C-158.344,-5.526 -151.294,-5.066 -144.387,-3.408C-140.109,-2.382 -136.395,-0.44 -133.639,3.087C-132.579,4.443 -131.109,5.108 -129.538,5.608C-124.026,7.365 -118.386,7.54 -112.715,6.766C-103.473,5.503 -94.457,3.091 -85.341,1.191C-73.318,-1.314 -61.189,-3.05 -48.97,-4.244C-39.843,-5.137 -30.707,-5.713 -21.535,-5.584C-17.185,-5.523 -12.841,-5.288 -8.604,-4.17C-7.706,-3.933 -6.811,-3.644 -5.965,-3.266C-2.037,-1.515 -0.044,1.694 -0.15,5.976C-0.163,6.505 -0.429,7.037 0,7.888" style="fill:rgb(255,169,0);fill-rule:nonzero;"/>
            </g>
        </g>
    </g>
</svg>
