<?xml version="1.0" encoding="UTF-8" standalone="no"?>
<!DOCTYPE svg PUBLIC "-//W3C//DTD SVG 1.1//EN" "http://www.w3.org/Graphics/SVG/1.1/DTD/svg11.dtd">
<svg width="100%" height="100%" viewBox="0 0 1405 164" version="1.1" xmlns="http://www.w3.org/2000/svg" xmlns:xlink="http://www.w3.org/1999/xlink" xml:space="preserve" xmlns:serif="http://www.serif.com/" style="fill-rule:evenodd;clip-rule:evenodd;stroke-linejoin:round;stroke-miterlimit:2;">
    <g transform="matrix(1,0,0,1,-17447.298812,-1608.625468)">
        <g transform="matrix(0.666581,0,0,1,5773.175429,-0.532798)">
            <g transform="matrix(6.250805,0,0,4.166667,18130.882667,1659.110758)">
                <path d="M0,15.859C-3.355,16.102 -6.669,14.415 -8.87,10.57C-10.027,8.549 -11.813,7.188 -13.854,6.144C-18.392,3.824 -23.206,2.969 -28.286,3.244C-35.554,3.638 -42.568,5.287 -49.491,7.373C-59.793,10.476 -69.441,15.158 -79.036,19.93C-83.34,22.071 -87.72,24.077 -91.823,26.619C-93.833,27.864 -96.308,27.367 -97.716,25.629C-99.24,23.747 -99.11,20.84 -97.416,18.987C-96.938,18.465 -96.37,18.063 -95.734,17.755C-86.232,13.152 -76.901,8.199 -67.206,3.993C-57.406,-0.259 -47.312,-3.518 -36.749,-5.205C-30.75,-6.163 -24.726,-6.737 -18.694,-5.401C-14.179,-4.402 -9.904,-2.825 -6.137,-0.069C-4.307,1.271 -2.613,2.796 -1.483,4.772C-0.603,6.309 0.512,6.61 2.182,6.415C7.138,5.835 11.959,4.66 16.746,3.334C27.667,0.311 38.575,-2.758 49.654,-5.167C58.082,-6.999 66.598,-8.296 75.176,-9.181C83.442,-10.035 91.717,-10.714 100.041,-10.608C102.382,-10.578 104.7,-10.348 106.991,-9.95C111.173,-9.224 114.224,-6.969 116.02,-3.034C118.31,1.98 122.206,4.49 127.783,4.527C133.353,4.564 138.744,3.475 144.128,2.284C155.192,-0.162 166.219,-2.781 177.311,-5.092C191.3,-8.007 205.387,-10.368 219.661,-11.399C223.763,-11.695 227.879,-11.805 231.989,-11.973C232.761,-12.005 233.555,-11.998 234.309,-11.853C236.764,-11.378 238.302,-9.439 238.193,-7.065C238.084,-4.693 236.369,-2.893 233.844,-2.731C231.445,-2.577 229.037,-2.515 226.635,-2.427C216.761,-2.065 207,-0.767 197.253,0.75C182.128,3.104 167.255,6.654 152.348,10.052C146.673,11.345 141.001,12.685 135.22,13.405C131.45,13.874 127.664,14.224 123.85,13.604C116.742,12.448 111.548,8.576 108.243,2.316C107.127,0.201 105.891,-0.841 103.504,-1.047C98.45,-1.482 93.426,-1.209 88.387,-0.928C70.335,0.078 52.643,3.193 35.212,7.954C27.353,10.101 19.552,12.48 11.596,14.261C8.112,15.04 4.615,15.776 0,15.859" style="fill:rgb(255,169,0);fill-rule:nonzero;"/>
            </g>
        </g>
    </g>
</svg>
