<?xml version="1.0" encoding="UTF-8" standalone="no"?>
<!DOCTYPE svg PUBLIC "-//W3C//DTD SVG 1.1//EN" "http://www.w3.org/Graphics/SVG/1.1/DTD/svg11.dtd">
<svg width="100%" height="100%" viewBox="0 0 1719 1692" version="1.1" xmlns="http://www.w3.org/2000/svg" xmlns:xlink="http://www.w3.org/1999/xlink" xml:space="preserve" xmlns:serif="http://www.serif.com/" style="fill-rule:evenodd;clip-rule:evenodd;stroke-linejoin:round;stroke-miterlimit:2;">
    <g transform="matrix(1,0,0,1,-17476.310678,-5208.318856)">
        <g transform="matrix(0.833226,0,0,3.333333,2888.324053,-7912.249194)">
            <g transform="matrix(5.000644,0,0,1.25,17861.706554,4144.9182)">
                <path d="M0,-9.075C-0.323,-8.992 -0.699,-8.896 -0.989,-8.822C-1.748,-8.009 0.163,-6.989 -1.536,-6.249C-2.785,-6.976 -3.223,-8.372 -3.892,-9.869C-5.096,-9.757 -6.374,-9.639 -7.735,-9.513C-8.204,-9.915 -7.337,-10.356 -7.579,-10.725C-7.959,-11.775 -9.133,-11.241 -9.625,-11.952C-9.823,-12.415 -10.028,-12.894 -10.285,-13.498C-11.994,-12.911 -13.523,-13.417 -15.122,-14.187C-16.612,-14.904 -17.446,-16.231 -18.755,-17.285C-17.085,-18.429 -17.809,-20.467 -16.981,-21.981C-15.48,-23.629 -13.181,-23.881 -11.409,-25.103C-10.412,-25.79 -9.049,-25.462 -7.92,-24.862C-6.493,-24.104 -5.057,-23.359 -3.658,-22.548C6.601,-16.6 16.851,-10.635 27.107,-4.681C33.517,-0.959 39.937,2.744 46.34,6.478C47.383,7.087 48.408,7.748 49.349,8.502C50.342,9.298 50.753,10.415 50.779,11.713C50.809,13.19 50.375,14.485 48.992,15.028C48.042,15.4 47.605,16.266 46.705,16.715C44.798,16.498 42.792,16.503 41.245,15.944C40.252,15.344 40.412,14.53 40.024,13.983C39.232,13.658 38.955,14.623 38.302,14.639C37.715,14.675 37.314,14.337 37.064,13.846C36.702,13.135 36.395,12.395 36.012,11.551C34.712,11.655 33.398,11.761 32.214,11.856C30.962,11.478 30.584,10.293 29.673,9.72C28.538,9.029 26.932,9.523 26.035,8.29L26.035,7.435C25.156,6.345 23.549,6.539 22.595,5.607C22.045,4.593 22.738,3.407 22.041,2.456C21.805,2.426 21.57,2.396 21.327,2.365C20.687,2.946 21.921,3.498 21.288,4.148C20.651,4.44 20.2,3.608 19.544,3.688C19.009,3.754 18.466,3.784 17.992,3.361C18.021,2.989 18.051,2.594 18.098,1.975C17.544,1.141 16.888,0.154 16.297,-0.738C14.842,-1.207 14.546,0.599 12.786,0.379C10.849,-0.436 8.981,-2.503 6.052,-3.397C5.425,-3.302 4.428,-2.76 3.238,-3.003C2.118,-3.701 1.425,-4.848 0.669,-6.13C0.257,-6.955 1.094,-8.201 0,-9.075" style="fill:rgb(255,169,0);fill-rule:nonzero;"/>
            </g>
        </g>
        <g transform="matrix(0.833226,0,0,3.333333,2888.324053,-7912.249194)">
            <g transform="matrix(5.000644,0,0,1.25,17635.281903,4283.516325)">
                <path d="M0,-11.041C0.448,-10.764 0.903,-10.483 1.358,-10.201C2.84,-10.025 3.861,-11.941 5.479,-11.136L5.479,-9.591C6.328,-9.661 7.101,-9.807 7.862,-9.761C8.511,-9.722 9.164,-9.275 9.784,-9.335C11.366,-9.489 12.977,-8.477 14.524,-9.462C17.015,-8.646 19.232,-9.858 21.514,-10.509C21.959,-10.085 22.339,-9.723 22.719,-9.361C23.939,-9.716 25.082,-8.609 26.481,-9.471C27.524,-10.114 29.014,-10.132 29.956,-10.727C31.462,-10.929 32.55,-10.29 33.589,-9.983C34.484,-9.946 34.814,-10.683 35.41,-10.96C35.662,-10.943 35.963,-11.011 36.157,-10.897C37.454,-10.135 38.8,-9.539 40.39,-9.52C41.969,-11.277 44.447,-10.173 45.935,-11.285C51.022,-9.632 51.022,-9.632 54.343,-11.355C57.153,-10.073 60.496,-11.135 62.956,-9.351C64.166,-9.527 64.201,-10.64 65.484,-11.227C67.556,-11.558 69.91,-10.678 72.138,-9.875C73.329,-8.078 72.971,-6.027 73.999,-4.296C72.608,-2.847 72.603,-0.462 70.208,0.517C69.025,0.9 67.529,0.719 66.052,0.727C60.378,0.758 54.715,0.495 49.047,0.218C42.71,-0.092 36.354,0.003 30.007,-0.126C26.903,-0.189 23.799,-0.321 20.699,-0.502C19.079,-0.596 17.508,-0.742 15.897,-0.224C14.454,0.239 12.963,-0.311 11.353,-0.516C10.857,-0.285 10.25,-0.002 9.53,0.333C6.96,-0.792 4.178,-1.015 1.309,-0.886C-0.427,-0.808 -2.177,-1.061 -4.595,-1.205C-4.446,-1.216 -4.596,-0.374 -5.495,-0.702C-5.587,-2.935 -5.25,-5.201 -4.727,-6.947C-4.745,-8.755 -6.567,-8.561 -6.689,-9.742C-6.517,-10.393 -6.517,-10.393 -4.305,-10.74C-3.304,-10.747 -2.701,-9.651 -1.375,-9.928C-1.056,-10.186 -0.538,-10.606 0,-11.041" style="fill:rgb(255,169,0);fill-rule:nonzero;"/>
            </g>
        </g>
        <g transform="matrix(0.833226,0,0,3.333333,2888.324053,-7912.249194)">
            <g transform="matrix(5.000644,0,0,1.25,18056.186592,4427.118075)">
                <path d="M0,-15.363C-2.638,-15.101 -4.551,-13.54 -6.561,-12.24C-7.678,-11.517 -8.711,-10.63 -9.656,-9.69C-10.366,-8.984 -11.246,-8.483 -12.093,-8.343C-15.283,-7.819 -17.742,-5.992 -20.251,-4.195C-20.287,-3.543 -20.322,-2.905 -20.356,-2.284C-21.437,-1.719 -22.468,-2.633 -23.491,-2.25C-24.487,-1.878 -25.483,-1.51 -26.613,-1.091C-27.39,0.746 -29.08,1.868 -30.678,3.138C-31.166,2.988 -31.672,2.831 -32.418,2.601C-33.457,3.089 -34.742,3.536 -35.851,4.256C-37.054,5.036 -38.337,5.777 -38.79,7.395C-39.042,8.297 -39.92,8.87 -40.944,9.122C-41.519,8.897 -42.127,8.658 -42.695,8.435C-44.215,8.937 -43.898,10.44 -44.386,11.348C-45.381,12.515 -46.498,13.187 -48.307,13.094C-49.508,12.003 -51.164,11.202 -52.882,11.293C-53.834,10.823 -53.952,9.709 -55.02,9.897C-55.23,8.246 -55.703,6.883 -57.173,6.043C-56.345,4.467 -55.157,3.985 -53.811,3.988C-53.107,3.99 -52.494,3.948 -51.914,3.564C-51.085,3.079 -51.631,1.999 -50.805,1.266C-49.509,0.824 -48.065,-0.011 -46.416,0.062C-45.351,0.11 -44.448,-0.355 -43.871,-0.96C-42.412,-2.489 -40.371,-2.892 -38.567,-4.134C-36.983,-6.679 -34.603,-8.202 -31.384,-7.943C-30.476,-8.986 -29.684,-9.895 -28.843,-10.86C-28.346,-10.754 -27.833,-10.643 -27.314,-10.532C-26.485,-10.699 -25.883,-11.211 -25.307,-11.804C-24.94,-12.183 -24.527,-12.624 -24.051,-12.775C-19.372,-14.255 -15.543,-17.312 -11.326,-19.64C-10.273,-20.222 -9.217,-20.802 -8.15,-21.367C-6.841,-22.059 -5.396,-22.649 -4.343,-23.637C-2.423,-25.439 -0.058,-26.357 2.193,-27.528C3.82,-28.375 5.506,-28.55 7.373,-28.12C8.472,-27.26 9.301,-25.98 11.003,-25.405C9.494,-24.093 8.624,-22.766 8.628,-21.283C6.116,-18.621 2.374,-18.269 0,-15.363" style="fill:rgb(255,169,0);fill-rule:nonzero;"/>
            </g>
        </g>
        <g transform="matrix(0.833226,0,0,3.333333,2888.324053,-7912.249194)">
            <g transform="matrix(5.000644,0,0,1.25,18882.157932,3977.916825)">
                <path d="M0,36.051C0.531,35.438 0.791,35.137 1.026,34.866C0.922,33.063 0.124,31.513 -0.664,29.83C-0.336,28.658 -0.019,27.383 -0.482,26.086C0.618,24.9 0.422,23.487 0.492,22.011C0.551,20.759 0.102,19.462 0.791,18.161C1.479,16.865 0.563,15.27 1.085,13.898C1.59,12.573 0.995,11.242 1.332,9.947C0.93,9.424 0.534,8.908 0.116,8.364C0.549,7.657 0.963,6.982 1.387,6.292C1.01,4.3 0.741,2.323 0.837,0.279C0.906,-1.177 0.502,-2.649 0.396,-4.121C0.293,-5.563 -0.302,-7.044 0.6,-8.443C0.07,-10.518 1.376,-12.654 0.343,-14.507C0.648,-15.948 1.342,-16.922 2.321,-17.913C3.364,-18.211 4.518,-18.54 5.435,-18.801C6.802,-18.581 7.757,-18.128 8.52,-17.348C9.349,-16.168 9.554,-14.856 9.569,-13.482C9.617,-9.302 9.721,-5.121 9.729,-0.941C9.762,15.108 9.766,31.156 9.776,47.205C9.777,48.553 9.817,49.908 9.713,51.25C9.529,53.615 8.095,54.806 5.684,54.832C3.866,54.852 2.39,53.8 0.524,53.493C0.09,51.784 -0.331,50.127 -0.702,48.669C-0.355,46.581 0.364,44.883 1.627,43.621C0.888,42.518 0.235,43.588 -0.414,43.161C-0.943,41.991 0.014,40.913 0.003,39.742C-0.009,38.53 0,37.318 0,36.051" style="fill:rgb(255,169,0);fill-rule:nonzero;"/>
            </g>
        </g>
        <g transform="matrix(0.833226,0,0,3.333333,2888.324053,-7912.249194)">
            <g transform="matrix(5.000644,0,0,1.25,18451.037427,4009.491575)">
                <path d="M0,47.004C0.232,48.19 0.392,49.39 0.711,50.545C1.085,51.896 1.176,53.209 0.537,54.477C-0.12,55.781 -1.303,56.393 -2.719,56.7C-4.237,56.695 -5.422,55.721 -6.624,55.192C-9.535,49.791 -12.336,44.462 -15.273,39.209C-16.506,37.003 -18.368,35.173 -19.062,32.623C-19.318,31.685 -20.389,31.348 -21.211,30.812C-22.671,26.289 -23.903,21.603 -27.754,18.34C-27.686,17.929 -27.622,17.537 -27.509,16.85C-28.004,16.412 -28.6,15.885 -29.424,15.156C-29.6,13.061 -31.054,11.251 -32.391,9.436C-33.271,8.241 -34.327,7.257 -34.253,5.586C-34.239,5.252 -34.965,4.886 -35.289,4.59C-36.214,2.073 -36.154,-0.883 -39.051,-2.322C-39.481,-2.967 -38.71,-3.499 -38.764,-4.151C-38.819,-4.819 -38.806,-5.498 -38.76,-6.168C-38.659,-7.679 -37.784,-8.687 -36.439,-9.195C-35.111,-9.696 -33.784,-9.548 -32.621,-8.629C-31.759,-7.949 -31.152,-7.074 -30.623,-6.118C-28.215,-1.771 -25.768,2.555 -23.365,6.905C-22.069,9.249 -20.837,11.629 -19.567,13.988C-19.249,14.579 -18.963,15.204 -18.548,15.723C-18.136,16.238 -17.582,16.641 -17.069,17.112C-16.94,17.753 -16.809,18.401 -16.663,19.125C-15.684,20.449 -14.475,21.6 -14.002,23.458C-13.558,25.206 -12.455,26.996 -11.145,28.25C-9.981,29.364 -10.335,31.466 -8.452,31.922C-7.888,33.376 -6.732,34.511 -6.361,36.105C-6.203,36.784 -5.39,37.311 -4.936,37.836C-5.075,38.259 -5.158,38.515 -5.241,38.766C-5.035,39.754 -4.039,39.713 -3.216,40.331C-2.964,40.83 -2.604,41.541 -2.237,42.268C-2.395,43.073 -2.546,43.842 -2.676,44.505C-2.226,45.92 -0.708,46.012 0,47.004" style="fill:rgb(255,169,0);fill-rule:nonzero;"/>
            </g>
        </g>
        <g transform="matrix(0.833226,0,0,3.333333,2888.324053,-7912.249194)">
            <g transform="matrix(5.000644,0,0,1.25,17685.880917,4191.1877)">
                <path d="M0,8.254C-1.402,8.525 -2.951,7.758 -4.247,8.935C-5.305,8.072 -6.229,7.319 -6.879,6.79C-8.099,6.273 -8.626,7.554 -9.254,7.163C-10.385,7.025 -10.945,6.533 -11.418,5.803C-12.099,4.751 -13.2,4.543 -14.23,5.057C-15.261,5.57 -16.257,5.689 -17.498,5.516C-18.304,5.047 -19.23,4.507 -20.218,3.932C-22.963,4.229 -25.364,2.921 -27.837,2.167C-28.624,0.996 -28.742,-0.521 -30.157,-1.104C-31.544,-1.242 -32.711,-0.467 -33.808,-0.13C-35.222,-0.494 -34.526,-1.414 -34.599,-2.105C-34.909,-2.492 -35.599,-2.546 -35.604,-3.552C-34.764,-4.556 -33.751,-5.769 -32.735,-6.985C-32.001,-6.805 -31.357,-6.647 -30.403,-6.413C-28.557,-7.351 -26.215,-7.214 -23.944,-7.723C-18.322,-6.567 -12.905,-4.53 -7.397,-2.8C-0.232,-0.55 6.928,1.719 14.012,3.955C14.695,3.531 15.253,3.184 15.776,2.859C16.605,3.073 16.7,3.827 17.093,4.426C18.952,5.345 20.738,6.506 22.957,6.82C24.105,6.982 25.232,7.66 26.25,8.295C28.107,9.453 28.762,11.328 28.128,13.162C27.56,14.808 25.583,15.977 23.547,15.728C22.487,15.598 21.457,15.228 20.414,14.968C17.311,14.197 14.349,12.984 11.317,11.997C9.767,11.492 7.974,11.779 6.693,10.948C5.417,10.121 3.985,9.839 2.703,9.134C1.896,8.691 0.927,8.544 0,8.254" style="fill:rgb(255,169,0);fill-rule:nonzero;"/>
            </g>
        </g>
        <g transform="matrix(0.833226,0,0,3.333333,2888.324053,-7912.249194)">
            <g transform="matrix(5.000644,0,0,1.25,18637.025872,3939.659075)">
                <path d="M0,54.853C-0.602,55.34 -1.327,55.927 -2.183,56.619C-3.164,56.407 -4.194,56.184 -4.989,56.012C-6.402,55.105 -6.833,53.766 -7.161,53.239C-8.187,51.907 -9.419,52.121 -9.959,51.044C-10.372,49.919 -9.205,49.262 -8.838,48.282C-9.113,46.834 -9.768,45.535 -10.698,44.279C-11.22,44.006 -11.803,43.701 -12.388,43.395C-12.353,42.337 -11.898,41.378 -12.293,40.243C-13.12,37.862 -13.237,35.287 -14.398,32.957C-14.967,31.816 -15.034,30.385 -14.64,29.053C-14.909,28.759 -15.178,28.466 -15.553,28.057C-15.476,27.384 -15.386,26.61 -15.293,25.807C-15.616,25.58 -15.94,25.351 -16.381,25.041C-16.444,24.362 -16.493,23.569 -16.593,22.782C-16.866,20.643 -17.185,18.534 -18.512,16.703C-19.505,15.334 -19.593,13.74 -19.255,12.115C-22.103,8.253 -22.363,4.532 -20.144,-0.709C-19.448,-1.449 -18.506,-1.576 -17.562,-1.637C-15.575,-1.766 -14.178,-0.863 -13.435,0.955C-12.978,2.074 -12.616,3.237 -12.292,4.402C-9.947,12.826 -7.63,21.258 -5.288,29.682C-3.559,35.902 -1.795,42.112 -0.069,48.333C0.746,51.271 0.724,51.402 0,54.853" style="fill:rgb(255,169,0);fill-rule:nonzero;"/>
            </g>
        </g>
        <g transform="matrix(0.833226,0,0,3.333333,2888.324053,-7912.249194)">
            <g transform="matrix(5.000644,0,0,1.25,18235.487676,4074.6602)">
                <path d="M0,22.454C1.375,23.475 2.975,23.622 3.995,24.769C3.884,26.338 3.662,27.908 4.135,29.471C3.571,31.251 2.5,32.533 0.698,33.028C-1.763,32.999 -3.498,31.206 -5.834,30.622C-6.032,30.085 -6.102,29.333 -6.508,28.888C-9.3,25.825 -11.841,22.534 -14.981,19.782C-16.595,18.368 -18.035,16.742 -19.451,15.122C-20.802,13.576 -22.311,12.293 -24.32,11.549C-25.449,9.231 -26.873,7.198 -29.338,6.015C-30.25,5.578 -31.038,4.642 -31.595,3.754C-32.963,1.574 -34.572,-0.39 -36.375,-2.207C-37.487,-3.328 -38.016,-4.63 -37.88,-6.219C-37.658,-8.837 -34.871,-10.574 -32.56,-9.295C-30.944,-8.401 -29.358,-7.245 -28.152,-5.863C-25.675,-3.025 -23.258,-0.169 -20.162,2.042C-18.988,2.879 -18.703,4.557 -17.121,5.144C-15.824,5.625 -15.242,6.97 -14.582,8.149C-14.33,8.6 -13.862,8.951 -13.441,9.284C-12.439,10.076 -11.103,10.29 -10.374,11.631C-9.756,12.767 -8.523,13.555 -7.627,14.556C-5.326,17.126 -3.232,19.914 -0.013,21.484C0.093,21.536 0,21.995 0,22.454" style="fill:rgb(255,169,0);fill-rule:nonzero;"/>
            </g>
        </g>
        <g transform="matrix(0.833226,0,0,3.333333,2888.324053,-7912.249194)">
            <g transform="matrix(5.000644,0,0,1.25,17805.156773,4336.497075)">
                <path d="M0,16.512C-1.914,17.421 -3.385,18.477 -5.462,18.256C-7.004,16.56 -9.634,15.697 -10.43,13.129C-9.557,11.87 -8.207,11.915 -7.154,11.371C-6.058,10.805 -5.323,9.829 -4.725,8.856C-2.214,7.554 1.08,8.835 2.914,6.176C3.323,6.298 3.579,6.374 4.086,6.525C6.561,5.037 9.44,5.178 12.42,5.725C12.889,5.212 13.333,4.725 13.84,4.171C16.266,3.382 18.985,3.179 21.338,1.784C21.773,1.527 22.357,1.521 22.872,1.4C25.198,0.851 27.648,0.886 29.875,-0.152C30.342,-0.369 30.939,-0.414 31.464,-0.377C33.817,-0.211 36.014,-0.684 37.963,-1.965C39.124,-1.627 40.154,-1.327 41.062,-1.062C44.227,1.409 43.663,4.435 41.503,5.759C39.79,6.81 38.031,7.662 35.925,7.962C33.29,8.337 30.719,9.211 28.148,9.965C20.802,12.119 13.408,14.095 6.026,16.115C4.011,16.667 2.088,16.91 0,16.512" style="fill:rgb(255,169,0);fill-rule:nonzero;"/>
            </g>
        </g>
        <g transform="matrix(0.833226,0,0,3.333333,2888.324053,-7912.249194)">
            <g transform="matrix(5.000644,0,0,1.25,19135.008985,3997.709075)">
                <path d="M0,43.775C-0.491,43.192 -1.091,42.48 -1.552,41.932C-1.97,40.774 -1.112,40.268 -0.803,39.452C-0.848,38.895 -0.902,38.245 -0.948,37.679C-0.687,36.78 0.388,36.57 0.468,35.629C0.675,32.872 0.186,29.89 2.844,27.932C2.917,27.299 2.956,26.765 3.044,26.239C3.152,25.594 3.492,24.922 3.387,24.323C3.212,23.32 4.308,23.548 4.489,22.928C4.713,22.159 5.034,21.419 5.336,20.606C5.176,20.102 5.023,19.596 4.853,19.095C4.727,18.72 4.579,18.352 4.47,18.061C4.703,16.296 5.681,15.118 6.959,14.135C7.263,13.277 6.604,12.6 6.522,11.785C6.676,11.024 6.836,10.234 7.01,9.372C7.439,8.969 7.919,8.518 8.383,8.083C8.421,7.79 8.529,7.512 8.478,7.266C8.054,5.186 8.143,3.38 10.048,1.863C11.03,1.081 11.544,-0.287 12.236,-1.339C13.219,-1.863 14.139,-1.542 15.172,-1.365C16.075,-0.512 17.047,0.405 18.002,1.305C18.533,3.16 16.656,2.434 16.005,3.251C16.288,4.494 17.766,4.174 18.435,4.909C18.715,5.115 18.718,5.33 18.539,5.612C18.252,6.064 17.846,6.519 17.771,7.016C16.76,13.699 13.954,19.862 12.233,26.332C10.917,31.277 9.095,36.057 7.811,41.003C7.304,42.957 6.272,44.413 4.23,45.324C2.972,45.417 1.53,45.524 -0.003,45.638C-0.844,45.117 0.357,44.517 0,43.775" style="fill:rgb(255,169,0);fill-rule:nonzero;"/>
            </g>
        </g>
        <g transform="matrix(0.833226,0,0,3.333333,2888.324053,-7912.249194)">
            <g transform="matrix(5.000644,0,0,1.25,17680.460219,4357.932575)">
                <path d="M0,6.615C-2.59,6.983 -4.58,7.258 -6.567,7.554C-7.096,7.633 -7.686,7.654 -8.129,7.909C-10.147,9.069 -12.457,9.333 -14.596,10.109C-17.498,11.161 -20.485,11.88 -23.53,12.408C-24.313,11.752 -25.181,11.705 -26.194,12.141C-26.381,11.654 -26.565,11.173 -26.775,10.628C-27.476,11.452 -28.275,11.964 -29.372,11.472C-30.301,11.133 -30.297,10.228 -30.553,9.493C-30.835,8.685 -32.008,8.678 -32.097,7.752C-32.133,7.384 -32.001,7 -31.959,6.721C-30.816,5.751 -29.505,6.316 -28.165,5.936C-27.008,4.659 -25.443,3.699 -23.777,3.256C-23.078,3.327 -22.55,3.381 -21.882,3.449C-20.374,2.104 -18.538,1.492 -16.471,1.219C-14.509,0.96 -12.622,0.174 -10.668,-0.218C-9.425,-0.467 -8.467,-1.163 -7.235,-1.884C-4.983,-1.842 -2.676,-2.49 -0.368,-3.263C2.556,-4.242 5.434,-5.426 8.655,-5.793C9.19,-5.576 9.884,-5.432 10.415,-5.056C12.948,-3.263 12.81,0.086 10.126,1.594C9.198,2.115 8.14,2.407 7.136,2.79C5.377,3.461 3.602,4.091 1.86,4.802C0.992,5.156 0.146,5.608 0,6.615" style="fill:rgb(255,169,0);fill-rule:nonzero;"/>
            </g>
        </g>
        <g transform="matrix(0.833226,0,0,3.333333,2888.324053,-7912.249194)">
            <g transform="matrix(5.000644,0,0,1.25,19237.954238,3972.1102)">
                <path d="M0,-18.135C-0.092,-19.618 -1.243,-20.826 -0.316,-22.189C0.301,-23.057 1.575,-22.296 2.164,-23.224C0.719,-25.872 0.719,-25.872 1.568,-28.708C2.643,-29.013 2.626,-27.632 3.666,-27.468C4.353,-27.606 5.26,-27.876 6.184,-27.954C8.868,-28.181 10.941,-26.179 10.656,-23.493C10.487,-21.901 10.028,-20.325 9.574,-18.779C7.602,-12.058 5.595,-5.348 3.572,1.358C3.184,2.645 2.712,3.911 2.201,5.154C1.918,5.843 2.062,6.454 2.337,7.321C1.287,8.207 0.157,9.16 -1.604,10.646C-2.101,10.878 -3.468,10.613 -4.781,10.687C-5.877,10.143 -6.186,9.078 -6.576,8.205C-6.837,5.817 -5.65,3.614 -6.131,1.351C-6.609,-0.895 -4.588,-2.73 -5.565,-4.755C-4.673,-5.854 -4,-6.685 -3.313,-7.531C-3.225,-8.312 -3.241,-9.136 -3.017,-9.889C-2.75,-10.783 -2.277,-11.616 -1.762,-12.767C-2.552,-14.812 -1.364,-16.593 0,-18.135" style="fill:rgb(255,169,0);fill-rule:nonzero;"/>
            </g>
        </g>
        <g transform="matrix(0.833226,0,0,3.333333,2888.324053,-7912.249194)">
            <g transform="matrix(5.000644,0,0,1.25,17995.984841,4031.51195)">
                <path d="M0,19.904C-0.906,20.179 -1.519,20.364 -2.235,20.581C-2.708,19.596 -3.163,18.649 -3.67,17.595C-5.738,16.198 -7.553,14.439 -9.069,12.339C-10.087,10.928 -11.243,9.569 -13.05,9.267C-13.585,8.046 -13.804,6.863 -14.833,6.047C-15.874,5.221 -16.786,4.223 -17.702,3.251C-19.354,1.498 -19.768,-0.468 -18.605,-2.638C-17.402,-3.908 -16.015,-4.596 -14.132,-4.345C-10.749,-2.324 -8.727,1.509 -4.811,3.529C-4.003,5.912 -2.059,7.602 0.774,8.54C1.083,11.051 3.028,12.326 4.859,13.516C4.895,14.051 4.919,14.416 4.934,14.646C6.096,15.14 7.203,15.61 8.334,16.091C8.679,16.854 9.005,17.574 9.379,18.401C9.158,19.114 8.923,19.872 8.681,20.655C8.563,21.591 9.635,22.308 9.217,23.344C8.344,24.5 7.366,23.978 6.306,23.429C5.467,23.601 4.558,23.788 3.838,23.936C2.781,23.62 2.912,22.439 2.006,22.199C1.367,22.029 0.765,21.723 0.101,21.459C0.071,21.001 0.047,20.626 0,19.904" style="fill:rgb(255,169,0);fill-rule:nonzero;"/>
            </g>
        </g>
        <g transform="matrix(0.833226,0,0,3.333333,2888.324053,-7912.249194)">
            <g transform="matrix(5.000644,0,0,1.25,17999.78283,4204.480075)">
                <path d="M0,16.885C-2.119,16.309 -4.209,15.808 -6.257,15.171C-11.128,13.655 -15.963,12.02 -20.845,10.542C-23.599,9.709 -25.699,8.298 -26.463,5.377C-26.688,4.513 -27.99,4.139 -27.518,2.921L-25.973,2.921C-25.285,2.637 -25.621,1.79 -25.178,1.145C-24.725,0.647 -24.725,0.647 -21.97,0C-20.64,0.16 -19.988,1.271 -19.077,2.074C-17.743,1.46 -16.885,2.586 -15.644,3.072C-14.507,3.117 -13.258,2.451 -11.678,2.856C-9.635,4.236 -7.077,4.915 -4.209,4.834C-3.393,5.44 -2.541,6.073 -1.689,6.707C-1.762,8.636 0.203,7.594 0.926,8.492C1.582,9.306 2.55,9.869 3.214,10.408C3.997,12.047 4.109,13.471 3.375,14.891C2.998,15.621 2.676,15.785 0,16.885" style="fill:rgb(255,169,0);fill-rule:nonzero;"/>
            </g>
        </g>
        <g transform="matrix(0.833226,0,0,3.333333,2888.324053,-7912.249194)">
            <g transform="matrix(5.000644,0,0,1.25,18651.646254,4019.74795)">
                <path d="M0,28.626C-1.418,27.603 -3.405,27.478 -4.099,25.595C-3.698,23.839 -1.902,25.033 -1.106,24.134C-1.033,23.514 -1.438,23.173 -1.867,22.835C-2.327,21.956 -1.219,21.145 -1.794,20.194C-2.317,19.329 -3.216,19.025 -3.916,18.444C-5.25,14.18 -5.25,14.18 -4.378,11.792C-6.086,9.626 -5.986,6.634 -7.594,4.339C-6.472,2.939 -5.484,1.707 -4.493,0.47C-3.31,0.049 -2.131,0 -0.979,0.29C0.529,0.976 1.258,2.201 1.731,3.668C2.678,6.606 3.67,9.53 4.647,12.458C5.454,14.877 6.265,17.294 7.074,19.712C7.33,20.476 7.641,21.226 7.829,22.007C8.666,25.493 7.194,27.75 3.603,28.384C2.426,28.592 1.205,28.552 0,28.626" style="fill:rgb(255,169,0);fill-rule:nonzero;"/>
            </g>
        </g>
        <g transform="matrix(0.833226,0,0,3.333333,2888.324053,-7912.249194)">
            <g transform="matrix(1.200155,0,0,0.3,16529.025978,3772.610575)">
                <path d="M2511.095,746.709C2516.95,749.055 2517.741,753.55 2520.916,756.117C2522.85,755.95 2524.9,755.771 2527.825,755.521C2528.212,762.255 2533.091,767.517 2534.262,773.205C2533.591,780.192 2529.062,780.917 2524.095,781.63C2519.916,786.517 2518.391,793.542 2513.054,797.746C2512.525,802.196 2514.783,807.121 2510.308,810.313C2507.145,812.567 2503.775,814.534 2500.066,816.909C2499.275,818.625 2498.245,820.596 2497.45,822.655C2496.645,824.742 2496.07,826.917 2495.187,829.717C2494.954,832.255 2498.187,833.584 2499.17,836.159C2497.412,839.721 2492.495,837.071 2491.991,838.492C2483.658,848.321 2483.387,859.096 2478.258,868.655C2475.829,870.634 2472.325,872.734 2469.858,875.696C2467.179,878.917 2467.929,884.571 2462.7,886.188C2463.237,890.359 2460.883,893.359 2458.387,896.146C2455.67,899.188 2457.458,904.125 2453.645,906.68C2452.191,908.238 2450.558,906.75 2448.808,906.9C2443.779,910.259 2446.416,917.055 2442.558,921.45C2439.404,925.038 2438.2,930.117 2438.004,935.055C2435.716,937.613 2432.512,934.971 2430.129,936.455C2425.475,940.25 2428.379,946.242 2425.708,950.688C2415.312,955.805 2413.687,967.455 2407.212,975.242C2407.841,978.563 2408.358,981.288 2408.962,984.467C2401.241,994.238 2388.483,1000.296 2384.975,1015.488C2385,1015.746 2385.2,1017.78 2385.445,1020.259C2380.887,1022.45 2376.437,1024.588 2371.425,1026.996C2366.029,1021.134 2360.783,1015.438 2355.883,1010.117C2355.366,998.384 2359.166,988.784 2364.608,979.267C2380.487,951.513 2395.57,923.305 2411.37,895.505C2436.637,851.025 2462.275,806.759 2487.65,762.342C2492.995,752.984 2499.712,746.163 2511.095,746.709Z" style="fill:rgb(255,169,0);"/>
            </g>
        </g>
    </g>
</svg>
